<svg id="visual" viewBox="0 0 960 540" width="960" height="540" xmlns="http://www.w3.org/2000/svg" xmlns:xlink="http://www.w3.org/1999/xlink" version="1.1"><rect x="0" y="0" width="960" height="540" fill="#931C1C"></rect><path d="M0 400L137 387L274 344L411 390L549 322L686 326L823 382L960 329L960 541L823 541L686 541L549 541L411 541L274 541L137 541L0 541Z" fill="#871400"></path><path d="M0 415L137 404L274 367L411 360L549 421L686 392L823 427L960 408L960 541L823 541L686 541L549 541L411 541L274 541L137 541L0 541Z" fill="#a32d04"></path><path d="M0 414L137 397L274 413L411 456L549 413L686 447L823 431L960 419L960 541L823 541L686 541L549 541L411 541L274 541L137 541L0 541Z" fill="#be4407"></path><path d="M0 436L137 451L274 460L411 452L549 464L686 457L823 480L960 475L960 541L823 541L686 541L549 541L411 541L274 541L137 541L0 541Z" fill="#da5b09"></path><path d="M0 501L137 502L274 491L411 475L549 478L686 508L823 487L960 472L960 541L823 541L686 541L549 541L411 541L274 541L137 541L0 541Z" fill="#f5730a"></path></svg>